M48
; DRILL file {KiCad 7.0.5} date Wed Jul  5 14:42:17 2023
; FORMAT={-:-/ absolute / inch / decimal}
; #@! TF.CreationDate,2023-07-05T14:42:17+01:00
; #@! TF.GenerationSoftware,Kicad,Pcbnew,7.0.5
; #@! TF.FileFunction,Plated,1,2,PTH
FMAT,2
INCH
; #@! TA.AperFunction,Plated,PTH,ComponentDrill
T1C0.0300
; #@! TA.AperFunction,Plated,PTH,ComponentDrill
T2C0.0400
%
G90
G05
T1
X6.2354Y-1.0236
X6.2354Y-2.1236
X6.3354Y-1.0236
X6.3354Y-2.1236
X6.4354Y-1.0236
X6.4354Y-2.1236
X6.5354Y-1.0236
X6.5354Y-2.1236
X6.6354Y-1.0236
X6.6354Y-2.1236
X6.7354Y-1.0236
X6.7354Y-2.1236
X6.8354Y-1.0236
X6.8354Y-2.1236
X6.9354Y-1.0236
X6.9354Y-2.1236
X7.0354Y-1.0236
X7.0354Y-2.1236
X7.1354Y-1.0236
X7.1354Y-2.1236
X7.2354Y-1.0236
X7.2354Y-2.1236
X7.3354Y-1.0236
X7.3354Y-2.1236
X7.4354Y-1.0236
X7.4354Y-2.1236
X7.5354Y-1.0236
X7.5354Y-2.1236
X7.6354Y-1.0236
X7.6354Y-2.1236
X8.0315Y-2.2732
X8.1189Y-1.7323
X8.2189Y-1.7323
X8.2315Y-2.2732
X8.3189Y-1.7323
X8.4189Y-1.7323
X8.5189Y-1.7323
X8.5701Y-1.0236
X8.6189Y-1.7323
X8.6701Y-1.0236
X8.7189Y-1.7323
X8.7701Y-1.0236
X8.8189Y-1.7323
X8.8701Y-1.0236
X8.9701Y-1.0236
X9.0157Y-2.3622
X9.0157Y-2.4622
X9.0157Y-2.5622
X9.0157Y-2.6622
X9.0157Y-2.7622
X9.0157Y-2.8622
X9.0157Y-2.9622
X9.0157Y-3.0622
X9.0701Y-1.0236
X9.1701Y-1.0227
X9.2701Y-1.0236
X9.3701Y-1.0236
X9.4701Y-1.0236
T2
X8.3827Y-2.0079
X8.4827Y-2.0079
X8.5827Y-2.0079
T0
M30
