%TF.GenerationSoftware,KiCad,Pcbnew,7.0.5*%
%TF.CreationDate,2023-07-05T14:29:17+01:00*%
%TF.ProjectId,rat,7261742e-6b69-4636-9164-5f7063625858,rev?*%
%TF.SameCoordinates,Original*%
%TF.FileFunction,Legend,Bot*%
%TF.FilePolarity,Positive*%
%FSLAX46Y46*%
G04 Gerber Fmt 4.6, Leading zero omitted, Abs format (unit mm)*
G04 Created by KiCad (PCBNEW 7.0.5) date 2023-07-05 14:29:17*
%MOMM*%
%LPD*%
G01*
G04 APERTURE LIST*
%ADD10C,0.100000*%
G04 APERTURE END LIST*
D10*
%TO.C,MCU1*%
X155382580Y-43073332D02*
X156382580Y-43073332D01*
X156382580Y-43073332D02*
X155668295Y-42739999D01*
X155668295Y-42739999D02*
X156382580Y-42406666D01*
X156382580Y-42406666D02*
X155382580Y-42406666D01*
X155477819Y-41359047D02*
X155430200Y-41406666D01*
X155430200Y-41406666D02*
X155382580Y-41549523D01*
X155382580Y-41549523D02*
X155382580Y-41644761D01*
X155382580Y-41644761D02*
X155430200Y-41787618D01*
X155430200Y-41787618D02*
X155525438Y-41882856D01*
X155525438Y-41882856D02*
X155620676Y-41930475D01*
X155620676Y-41930475D02*
X155811152Y-41978094D01*
X155811152Y-41978094D02*
X155954009Y-41978094D01*
X155954009Y-41978094D02*
X156144485Y-41930475D01*
X156144485Y-41930475D02*
X156239723Y-41882856D01*
X156239723Y-41882856D02*
X156334961Y-41787618D01*
X156334961Y-41787618D02*
X156382580Y-41644761D01*
X156382580Y-41644761D02*
X156382580Y-41549523D01*
X156382580Y-41549523D02*
X156334961Y-41406666D01*
X156334961Y-41406666D02*
X156287342Y-41359047D01*
X156382580Y-40930475D02*
X155573057Y-40930475D01*
X155573057Y-40930475D02*
X155477819Y-40882856D01*
X155477819Y-40882856D02*
X155430200Y-40835237D01*
X155430200Y-40835237D02*
X155382580Y-40739999D01*
X155382580Y-40739999D02*
X155382580Y-40549523D01*
X155382580Y-40549523D02*
X155430200Y-40454285D01*
X155430200Y-40454285D02*
X155477819Y-40406666D01*
X155477819Y-40406666D02*
X155573057Y-40359047D01*
X155573057Y-40359047D02*
X156382580Y-40359047D01*
X155382580Y-39359047D02*
X155382580Y-39930475D01*
X155382580Y-39644761D02*
X156382580Y-39644761D01*
X156382580Y-39644761D02*
X156239723Y-39739999D01*
X156239723Y-39739999D02*
X156144485Y-39835237D01*
X156144485Y-39835237D02*
X156096866Y-39930475D01*
%TO.C,Battery1*%
X193906390Y-88227619D02*
X193858771Y-88084762D01*
X193858771Y-88084762D02*
X193811152Y-88037143D01*
X193811152Y-88037143D02*
X193715914Y-87989524D01*
X193715914Y-87989524D02*
X193573057Y-87989524D01*
X193573057Y-87989524D02*
X193477819Y-88037143D01*
X193477819Y-88037143D02*
X193430200Y-88084762D01*
X193430200Y-88084762D02*
X193382580Y-88180000D01*
X193382580Y-88180000D02*
X193382580Y-88560952D01*
X193382580Y-88560952D02*
X194382580Y-88560952D01*
X194382580Y-88560952D02*
X194382580Y-88227619D01*
X194382580Y-88227619D02*
X194334961Y-88132381D01*
X194334961Y-88132381D02*
X194287342Y-88084762D01*
X194287342Y-88084762D02*
X194192104Y-88037143D01*
X194192104Y-88037143D02*
X194096866Y-88037143D01*
X194096866Y-88037143D02*
X194001628Y-88084762D01*
X194001628Y-88084762D02*
X193954009Y-88132381D01*
X193954009Y-88132381D02*
X193906390Y-88227619D01*
X193906390Y-88227619D02*
X193906390Y-88560952D01*
X193382580Y-87132381D02*
X193906390Y-87132381D01*
X193906390Y-87132381D02*
X194001628Y-87180000D01*
X194001628Y-87180000D02*
X194049247Y-87275238D01*
X194049247Y-87275238D02*
X194049247Y-87465714D01*
X194049247Y-87465714D02*
X194001628Y-87560952D01*
X193430200Y-87132381D02*
X193382580Y-87227619D01*
X193382580Y-87227619D02*
X193382580Y-87465714D01*
X193382580Y-87465714D02*
X193430200Y-87560952D01*
X193430200Y-87560952D02*
X193525438Y-87608571D01*
X193525438Y-87608571D02*
X193620676Y-87608571D01*
X193620676Y-87608571D02*
X193715914Y-87560952D01*
X193715914Y-87560952D02*
X193763533Y-87465714D01*
X193763533Y-87465714D02*
X193763533Y-87227619D01*
X193763533Y-87227619D02*
X193811152Y-87132381D01*
X194049247Y-86799047D02*
X194049247Y-86418095D01*
X194382580Y-86656190D02*
X193525438Y-86656190D01*
X193525438Y-86656190D02*
X193430200Y-86608571D01*
X193430200Y-86608571D02*
X193382580Y-86513333D01*
X193382580Y-86513333D02*
X193382580Y-86418095D01*
X194049247Y-86227618D02*
X194049247Y-85846666D01*
X194382580Y-86084761D02*
X193525438Y-86084761D01*
X193525438Y-86084761D02*
X193430200Y-86037142D01*
X193430200Y-86037142D02*
X193382580Y-85941904D01*
X193382580Y-85941904D02*
X193382580Y-85846666D01*
X193430200Y-85132380D02*
X193382580Y-85227618D01*
X193382580Y-85227618D02*
X193382580Y-85418094D01*
X193382580Y-85418094D02*
X193430200Y-85513332D01*
X193430200Y-85513332D02*
X193525438Y-85560951D01*
X193525438Y-85560951D02*
X193906390Y-85560951D01*
X193906390Y-85560951D02*
X194001628Y-85513332D01*
X194001628Y-85513332D02*
X194049247Y-85418094D01*
X194049247Y-85418094D02*
X194049247Y-85227618D01*
X194049247Y-85227618D02*
X194001628Y-85132380D01*
X194001628Y-85132380D02*
X193906390Y-85084761D01*
X193906390Y-85084761D02*
X193811152Y-85084761D01*
X193811152Y-85084761D02*
X193715914Y-85560951D01*
X193382580Y-84656189D02*
X194049247Y-84656189D01*
X193858771Y-84656189D02*
X193954009Y-84608570D01*
X193954009Y-84608570D02*
X194001628Y-84560951D01*
X194001628Y-84560951D02*
X194049247Y-84465713D01*
X194049247Y-84465713D02*
X194049247Y-84370475D01*
X194049247Y-84132379D02*
X193382580Y-83894284D01*
X194049247Y-83656189D02*
X193382580Y-83894284D01*
X193382580Y-83894284D02*
X193144485Y-83989522D01*
X193144485Y-83989522D02*
X193096866Y-84037141D01*
X193096866Y-84037141D02*
X193049247Y-84132379D01*
X193382580Y-82751427D02*
X193382580Y-83322855D01*
X193382580Y-83037141D02*
X194382580Y-83037141D01*
X194382580Y-83037141D02*
X194239723Y-83132379D01*
X194239723Y-83132379D02*
X194144485Y-83227617D01*
X194144485Y-83227617D02*
X194096866Y-83322855D01*
%TO.C,Switch1*%
X218150475Y-55989800D02*
X218007618Y-56037419D01*
X218007618Y-56037419D02*
X217769523Y-56037419D01*
X217769523Y-56037419D02*
X217674285Y-55989800D01*
X217674285Y-55989800D02*
X217626666Y-55942180D01*
X217626666Y-55942180D02*
X217579047Y-55846942D01*
X217579047Y-55846942D02*
X217579047Y-55751704D01*
X217579047Y-55751704D02*
X217626666Y-55656466D01*
X217626666Y-55656466D02*
X217674285Y-55608847D01*
X217674285Y-55608847D02*
X217769523Y-55561228D01*
X217769523Y-55561228D02*
X217959999Y-55513609D01*
X217959999Y-55513609D02*
X218055237Y-55465990D01*
X218055237Y-55465990D02*
X218102856Y-55418371D01*
X218102856Y-55418371D02*
X218150475Y-55323133D01*
X218150475Y-55323133D02*
X218150475Y-55227895D01*
X218150475Y-55227895D02*
X218102856Y-55132657D01*
X218102856Y-55132657D02*
X218055237Y-55085038D01*
X218055237Y-55085038D02*
X217959999Y-55037419D01*
X217959999Y-55037419D02*
X217721904Y-55037419D01*
X217721904Y-55037419D02*
X217579047Y-55085038D01*
X217245713Y-55370752D02*
X217055237Y-56037419D01*
X217055237Y-56037419D02*
X216864761Y-55561228D01*
X216864761Y-55561228D02*
X216674285Y-56037419D01*
X216674285Y-56037419D02*
X216483809Y-55370752D01*
X216102856Y-56037419D02*
X216102856Y-55370752D01*
X216102856Y-55037419D02*
X216150475Y-55085038D01*
X216150475Y-55085038D02*
X216102856Y-55132657D01*
X216102856Y-55132657D02*
X216055237Y-55085038D01*
X216055237Y-55085038D02*
X216102856Y-55037419D01*
X216102856Y-55037419D02*
X216102856Y-55132657D01*
X215769523Y-55370752D02*
X215388571Y-55370752D01*
X215626666Y-55037419D02*
X215626666Y-55894561D01*
X215626666Y-55894561D02*
X215579047Y-55989800D01*
X215579047Y-55989800D02*
X215483809Y-56037419D01*
X215483809Y-56037419D02*
X215388571Y-56037419D01*
X214626666Y-55989800D02*
X214721904Y-56037419D01*
X214721904Y-56037419D02*
X214912380Y-56037419D01*
X214912380Y-56037419D02*
X215007618Y-55989800D01*
X215007618Y-55989800D02*
X215055237Y-55942180D01*
X215055237Y-55942180D02*
X215102856Y-55846942D01*
X215102856Y-55846942D02*
X215102856Y-55561228D01*
X215102856Y-55561228D02*
X215055237Y-55465990D01*
X215055237Y-55465990D02*
X215007618Y-55418371D01*
X215007618Y-55418371D02*
X214912380Y-55370752D01*
X214912380Y-55370752D02*
X214721904Y-55370752D01*
X214721904Y-55370752D02*
X214626666Y-55418371D01*
X214198094Y-56037419D02*
X214198094Y-55037419D01*
X213769523Y-56037419D02*
X213769523Y-55513609D01*
X213769523Y-55513609D02*
X213817142Y-55418371D01*
X213817142Y-55418371D02*
X213912380Y-55370752D01*
X213912380Y-55370752D02*
X214055237Y-55370752D01*
X214055237Y-55370752D02*
X214150475Y-55418371D01*
X214150475Y-55418371D02*
X214198094Y-55465990D01*
X212769523Y-56037419D02*
X213340951Y-56037419D01*
X213055237Y-56037419D02*
X213055237Y-55037419D01*
X213055237Y-55037419D02*
X213150475Y-55180276D01*
X213150475Y-55180276D02*
X213245713Y-55275514D01*
X213245713Y-55275514D02*
X213340951Y-55323133D01*
%TO.C,IMU1*%
X213538572Y-34652580D02*
X213538572Y-35652580D01*
X214014762Y-34652580D02*
X214014762Y-35652580D01*
X214014762Y-35652580D02*
X214348095Y-34938295D01*
X214348095Y-34938295D02*
X214681428Y-35652580D01*
X214681428Y-35652580D02*
X214681428Y-34652580D01*
X215157619Y-35652580D02*
X215157619Y-34843057D01*
X215157619Y-34843057D02*
X215205238Y-34747819D01*
X215205238Y-34747819D02*
X215252857Y-34700200D01*
X215252857Y-34700200D02*
X215348095Y-34652580D01*
X215348095Y-34652580D02*
X215538571Y-34652580D01*
X215538571Y-34652580D02*
X215633809Y-34700200D01*
X215633809Y-34700200D02*
X215681428Y-34747819D01*
X215681428Y-34747819D02*
X215729047Y-34843057D01*
X215729047Y-34843057D02*
X215729047Y-35652580D01*
X216729047Y-34652580D02*
X216157619Y-34652580D01*
X216443333Y-34652580D02*
X216443333Y-35652580D01*
X216443333Y-35652580D02*
X216348095Y-35509723D01*
X216348095Y-35509723D02*
X216252857Y-35414485D01*
X216252857Y-35414485D02*
X216157619Y-35366866D01*
%TO.C,MCU1*%
X204735000Y-56099000D02*
X147585000Y-56099000D01*
X147585000Y-56099000D02*
X147585000Y-24349000D01*
X147585000Y-24349000D02*
X204735000Y-24349000D01*
X204735000Y-24349000D02*
X204735000Y-56099000D01*
%TO.C,Battery1*%
X214160000Y-118700000D02*
X176060000Y-118700000D01*
X176060000Y-118700000D02*
X176060000Y-55200000D01*
X176060000Y-55200000D02*
X214160000Y-55200000D01*
X214160000Y-55200000D02*
X214160000Y-118700000D01*
%TO.C,Switch1*%
X223080000Y-53540000D02*
X207840000Y-53540000D01*
X207840000Y-53540000D02*
X207840000Y-48460000D01*
X207840000Y-48460000D02*
X223080000Y-48460000D01*
X223080000Y-48460000D02*
X223080000Y-53540000D01*
%TO.C,IMU1*%
X225270000Y-31300000D02*
G75*
G03*
X225270000Y-31300000I-1270000J0D01*
G01*
X207490000Y-31300000D02*
G75*
G03*
X207490000Y-31300000I-1270000J0D01*
G01*
X204950000Y-45270000D02*
X225270000Y-45270000D01*
X225270000Y-45270000D02*
X225270000Y-30030000D01*
X225270000Y-30030000D02*
X204950000Y-30030000D01*
X204950000Y-30030000D02*
X204950000Y-45270000D01*
%TD*%
M02*
