M48
; DRILL file {KiCad 7.0.5} date Wed Jul  5 14:42:17 2023
; FORMAT={-:-/ absolute / inch / decimal}
; #@! TF.CreationDate,2023-07-05T14:42:17+01:00
; #@! TF.GenerationSoftware,Kicad,Pcbnew,7.0.5
; #@! TF.FileFunction,NonPlated,1,2,NPTH
FMAT,2
INCH
; #@! TA.AperFunction,NonPlated,NPTH,ComponentDrill
T1C0.1000
%
G90
G05
T1
X5.8634Y-2.1536
X5.8654Y-1.0136
X6.6157Y-1.5122
X6.6157Y-3.0122
X8.0104Y-1.0236
X8.1157Y-1.5122
X8.1189Y-1.2323
X8.8189Y-1.2323
T1
G00X5.911Y-3.4382
M15
G01X5.911Y-3.3382
M16
G05
G00X5.911Y-4.5382
M15
G01X5.911Y-4.4382
M16
G05
G00X6.811Y-3.4382
M15
G01X6.811Y-3.3382
M16
G05
G00X6.811Y-4.5382
M15
G01X6.811Y-4.4382
M16
G05
G00X7.0315Y-3.0232
M15
G01X7.0315Y-2.9232
M16
G05
G00X7.0315Y-4.2232
M15
G01X7.0315Y-4.1232
M16
G05
G00X8.3315Y-3.0232
M15
G01X8.3315Y-2.9232
M16
G05
G00X8.3315Y-4.2232
M15
G01X8.3315Y-4.1232
M16
G05
G00X8.5583Y-3.4232
M15
G01X8.5583Y-3.3232
M16
G05
G00X8.5583Y-4.5232
M15
G01X8.5583Y-4.4232
M16
G05
G00X9.4583Y-3.4232
M15
G01X9.4583Y-3.3232
M16
G05
G00X9.4583Y-4.5232
M15
G01X9.4583Y-4.4232
M16
G05
T0
M30
