%TF.GenerationSoftware,KiCad,Pcbnew,7.0.5*%
%TF.CreationDate,2023-07-05T14:29:17+01:00*%
%TF.ProjectId,rat,7261742e-6b69-4636-9164-5f7063625858,rev?*%
%TF.SameCoordinates,Original*%
%TF.FileFunction,Copper,L2,Bot*%
%TF.FilePolarity,Positive*%
%FSLAX46Y46*%
G04 Gerber Fmt 4.6, Leading zero omitted, Abs format (unit mm)*
G04 Created by KiCad (PCBNEW 7.0.5) date 2023-07-05 14:29:17*
%MOMM*%
%LPD*%
G01*
G04 APERTURE LIST*
%TA.AperFunction,ComponentPad*%
%ADD10C,1.778000*%
%TD*%
%TA.AperFunction,ComponentPad*%
%ADD11C,1.524000*%
%TD*%
%TA.AperFunction,ComponentPad*%
%ADD12C,2.540000*%
%TD*%
%TA.AperFunction,ComponentPad*%
%ADD13C,2.032000*%
%TD*%
%TA.AperFunction,Conductor*%
%ADD14C,0.250000*%
%TD*%
%TA.AperFunction,Conductor*%
%ADD15C,0.600000*%
%TD*%
G04 APERTURE END LIST*
D10*
%TO.P,HBridge1,8,ENB*%
%TO.N,Net-(HBridge1-ENB)*%
X229000000Y-77780000D03*
%TO.P,HBridge1,7,IN4*%
%TO.N,Net-(HBridge1-IN4)*%
X229000000Y-75240000D03*
%TO.P,HBridge1,6,IN3*%
%TO.N,Net-(HBridge1-IN3)*%
X229000000Y-72700000D03*
%TO.P,HBridge1,5,IN2*%
%TO.N,Net-(HBridge1-IN2)*%
X229000000Y-70160000D03*
%TO.P,HBridge1,4,IN1*%
%TO.N,Net-(HBridge1-IN1)*%
X229000000Y-67620000D03*
%TO.P,HBridge1,3,ENA*%
%TO.N,Net-(HBridge1-ENA)*%
X229000000Y-65080000D03*
%TO.P,HBridge1,2,GND*%
%TO.N,Net-(Battery1-GND)*%
X229000000Y-62540000D03*
%TO.P,HBridge1,1,Vin*%
%TO.N,Net-(Connector1-Vin)*%
X229000000Y-60000000D03*
%TD*%
D11*
%TO.P,MCU1,1,ADC0*%
%TO.N,unconnected-(MCU1-ADC0-Pad1)*%
X193940000Y-53940000D03*
%TO.P,MCU1,2,GND*%
%TO.N,Net-(Battery1-GND)*%
X191400000Y-53940000D03*
%TO.P,MCU1,3*%
%TO.N,N/C*%
X188860000Y-53940000D03*
%TO.P,MCU1,4,GPIO10*%
%TO.N,Net-(Connector1-GPO10)*%
X186320000Y-53940000D03*
%TO.P,MCU1,5,GPIO9*%
%TO.N,Net-(Connector1-GPIO9)*%
X183780000Y-53940000D03*
%TO.P,MCU1,6,MOSI*%
%TO.N,unconnected-(MCU1-MOSI-Pad6)*%
X181240000Y-53940000D03*
%TO.P,MCU1,7,CS*%
%TO.N,unconnected-(MCU1-CS-Pad7)*%
X178700000Y-53940000D03*
%TO.P,MCU1,8,MISO*%
%TO.N,unconnected-(MCU1-MISO-Pad8)*%
X176160000Y-53940000D03*
%TO.P,MCU1,9,SCLK*%
%TO.N,unconnected-(MCU1-SCLK-Pad9)*%
X173620000Y-53940000D03*
%TO.P,MCU1,10,GND*%
%TO.N,Net-(Battery1-GND)*%
X171080000Y-53940000D03*
%TO.P,MCU1,11,3V*%
%TO.N,Net-(Connector1-3V)*%
X168540000Y-53940000D03*
%TO.P,MCU1,12,EN*%
%TO.N,unconnected-(MCU1-EN-Pad12)*%
X166000000Y-53940000D03*
%TO.P,MCU1,13,RST*%
%TO.N,unconnected-(MCU1-RST-Pad13)*%
X163460000Y-53940000D03*
%TO.P,MCU1,14,GND*%
%TO.N,Net-(Battery1-GND)*%
X160920000Y-53940000D03*
%TO.P,MCU1,15,Vin*%
%TO.N,Net-(Connector1-Vin)*%
X158380000Y-53940000D03*
%TO.P,MCU1,16,GPIO16*%
%TO.N,Net-(HBridge1-IN1)*%
X193940000Y-26000000D03*
%TO.P,MCU1,17,GPIO5*%
%TO.N,Net-(HBridge1-IN2)*%
X191400000Y-26000000D03*
%TO.P,MCU1,18,GPIO4*%
%TO.N,Net-(HBridge1-IN3)*%
X188860000Y-26000000D03*
%TO.P,MCU1,19,GPIO0*%
%TO.N,Net-(HBridge1-IN4)*%
X186320000Y-26000000D03*
%TO.P,MCU1,20,GPIO2*%
%TO.N,Net-(Connector1-GPIO2)*%
X183780000Y-26000000D03*
%TO.P,MCU1,21,3V*%
%TO.N,Net-(Connector1-3V)*%
X181240000Y-26000000D03*
%TO.P,MCU1,22,GND*%
%TO.N,Net-(Battery1-GND)*%
X178700000Y-26000000D03*
%TO.P,MCU1,23,GPIO14*%
%TO.N,Net-(Connector1-SCL)*%
X176160000Y-26000000D03*
%TO.P,MCU1,24,GPIO12*%
%TO.N,Net-(Connector1-SDA)*%
X173620000Y-26000000D03*
%TO.P,MCU1,25,GPIO13*%
%TO.N,Net-(HBridge1-ENA)*%
X171080000Y-26000000D03*
%TO.P,MCU1,26,GPIO15*%
%TO.N,Net-(HBridge1-ENB)*%
X168540000Y-26000000D03*
%TO.P,MCU1,27,GPIO3*%
%TO.N,Net-(Connector1-GPIO3)*%
X166000000Y-26000000D03*
%TO.P,MCU1,28,GPIO1*%
%TO.N,Net-(Connector1-GPIO1)*%
X163460000Y-26000000D03*
%TO.P,MCU1,29,GND*%
%TO.N,Net-(Battery1-GND)*%
X160920000Y-26000000D03*
%TO.P,MCU1,30,3V*%
%TO.N,Net-(Connector1-3V)*%
X158380000Y-26000000D03*
%TD*%
D12*
%TO.P,Battery1,1,Vin*%
%TO.N,Net-(Battery1-Vin)*%
X209080000Y-57740000D03*
%TO.P,Battery1,2,GND*%
%TO.N,Net-(Battery1-GND)*%
X204000000Y-57740000D03*
%TD*%
D13*
%TO.P,Switch1,3,Output2*%
%TO.N,unconnected-(Switch1-Output2-Pad3)*%
X212920000Y-51000000D03*
%TO.P,Switch1,2,Common*%
%TO.N,Net-(Battery1-Vin)*%
X215460000Y-51000000D03*
%TO.P,Switch1,1,Output1*%
%TO.N,Net-(Connector1-Vin)*%
X218000000Y-51000000D03*
%TD*%
D11*
%TO.P,IMU1,8,VCC*%
%TO.N,Net-(Connector1-3V)*%
X224000000Y-44000000D03*
%TO.P,IMU1,7,GND*%
%TO.N,Net-(Battery1-GND)*%
X221460000Y-44000000D03*
%TO.P,IMU1,6,SCL*%
%TO.N,Net-(Connector1-SCL)*%
X218920000Y-44000000D03*
%TO.P,IMU1,5,SDA*%
%TO.N,Net-(Connector1-SDA)*%
X216380000Y-44000000D03*
%TO.P,IMU1,4,XDA*%
%TO.N,unconnected-(IMU1-XDA-Pad4)*%
X213840000Y-44000000D03*
%TO.P,IMU1,3,XCL*%
%TO.N,unconnected-(IMU1-XCL-Pad3)*%
X211300000Y-44000000D03*
%TO.P,IMU1,2,ADC*%
%TO.N,unconnected-(IMU1-ADC-Pad2)*%
X208760000Y-44000000D03*
%TO.P,IMU1,1,INT*%
%TO.N,unconnected-(IMU1-INT-Pad1)*%
X206220000Y-44000000D03*
%TD*%
D10*
%TO.P,Connector1,10,GND*%
%TO.N,Net-(Battery1-GND)*%
X240540000Y-26000000D03*
%TO.P,Connector1,9,3V*%
%TO.N,Net-(Connector1-3V)*%
X238000000Y-26000000D03*
%TO.P,Connector1,8,Vin*%
%TO.N,Net-(Connector1-Vin)*%
X235460000Y-26000000D03*
%TO.P,Connector1,7,GPIO1*%
%TO.N,Net-(Connector1-GPIO1)*%
X232920000Y-25976785D03*
%TO.P,Connector1,6,GPIO3*%
%TO.N,Net-(Connector1-GPIO3)*%
X230380000Y-26000000D03*
%TO.P,Connector1,5,GPIO2*%
%TO.N,Net-(Connector1-GPIO2)*%
X227840000Y-26000000D03*
%TO.P,Connector1,4,GPIO9*%
%TO.N,Net-(Connector1-GPIO9)*%
X225300000Y-26000000D03*
%TO.P,Connector1,3,GPO10*%
%TO.N,Net-(Connector1-GPO10)*%
X222760000Y-26000000D03*
%TO.P,Connector1,2,SDA*%
%TO.N,Net-(Connector1-SDA)*%
X220220000Y-26000000D03*
%TO.P,Connector1,1,SCL*%
%TO.N,Net-(Connector1-SCL)*%
X217680000Y-26000000D03*
%TD*%
D14*
%TO.N,Net-(Battery1-GND)*%
X162007000Y-27087000D02*
X160920000Y-26000000D01*
X169077251Y-27000000D02*
X168990251Y-27087000D01*
X168990251Y-27087000D02*
X162007000Y-27087000D01*
X170542749Y-27000000D02*
X169077251Y-27000000D01*
X170629749Y-27087000D02*
X170542749Y-27000000D01*
X177613000Y-27087000D02*
X170629749Y-27087000D01*
X178700000Y-26000000D02*
X177613000Y-27087000D01*
%TO.N,Net-(Connector1-3V)*%
X179240000Y-28000000D02*
X181240000Y-26000000D01*
X160380000Y-28000000D02*
X179240000Y-28000000D01*
X158380000Y-26000000D02*
X160380000Y-28000000D01*
%TO.N,Net-(Connector1-GPIO9)*%
X157929749Y-55027000D02*
X182693000Y-55027000D01*
X157293000Y-54390251D02*
X157929749Y-55027000D01*
X169000000Y-41000000D02*
X157293000Y-52707000D01*
X210300000Y-41000000D02*
X169000000Y-41000000D01*
X225300000Y-26000000D02*
X210300000Y-41000000D01*
X157293000Y-52707000D02*
X157293000Y-54390251D01*
X182693000Y-55027000D02*
X183780000Y-53940000D01*
%TO.N,Net-(Connector1-GPO10)*%
X184783000Y-55477000D02*
X186320000Y-53940000D01*
X156636396Y-52727208D02*
X156636396Y-54370043D01*
X156636396Y-54370043D02*
X157743353Y-55477000D01*
X168813604Y-40550000D02*
X156636396Y-52727208D01*
X157743353Y-55477000D02*
X184783000Y-55477000D01*
X208210000Y-40550000D02*
X168813604Y-40550000D01*
X222760000Y-26000000D02*
X208210000Y-40550000D01*
%TO.N,Net-(Connector1-GPIO1)*%
X166005000Y-23455000D02*
X163460000Y-26000000D01*
X230398215Y-23455000D02*
X166005000Y-23455000D01*
X232920000Y-25976785D02*
X230398215Y-23455000D01*
%TO.N,Net-(Connector1-GPIO3)*%
X168095000Y-23905000D02*
X166000000Y-26000000D01*
X228285000Y-23905000D02*
X168095000Y-23905000D01*
X230380000Y-26000000D02*
X228285000Y-23905000D01*
%TO.N,Net-(Connector1-GPIO2)*%
X185425000Y-24355000D02*
X183780000Y-26000000D01*
X227840000Y-26000000D02*
X226195000Y-24355000D01*
X226195000Y-24355000D02*
X185425000Y-24355000D01*
D15*
%TO.N,Net-(Battery1-GND)*%
X240540000Y-51000000D02*
X240540000Y-26000000D01*
X229000000Y-62540000D02*
X240540000Y-51000000D01*
X195200000Y-57740000D02*
X191400000Y-53940000D01*
X204000000Y-57740000D02*
X195200000Y-57740000D01*
X208800000Y-62540000D02*
X229000000Y-62540000D01*
X204000000Y-57740000D02*
X208800000Y-62540000D01*
%TO.N,Net-(Connector1-Vin)*%
X235460000Y-34976840D02*
X235460000Y-26000000D01*
X218000000Y-51000000D02*
X219436840Y-51000000D01*
X219436840Y-51000000D02*
X235460000Y-34976840D01*
X220000000Y-51000000D02*
X229000000Y-60000000D01*
D14*
X218000000Y-51000000D02*
X220000000Y-51000000D01*
D15*
X214915671Y-47915671D02*
X164404329Y-47915671D01*
X218000000Y-51000000D02*
X214915671Y-47915671D01*
X164404329Y-47915671D02*
X158380000Y-53940000D01*
D14*
%TO.N,Net-(Battery1-Vin)*%
X215460000Y-51360000D02*
X215460000Y-51000000D01*
D15*
X209080000Y-57740000D02*
X215460000Y-51360000D01*
%TD*%
M02*
